# xmcd
#
# Track frame offsets:
#	150
#	15007
#	30462
#	46215
#	68730
#	86395
#	105670
#	121270
#	139885
#	156927
#
# Disc length: 2283 seconds
#
# Revision: 0
# Processed by: cddbd v1.4PL0 Copyright (c) Steve Scherf et al.
# Submitted via: dBpowerAMP V4.0
#
DISCID=6f08e90a
DTITLE=Bjørn Jens - Midnattsol
DYEAR=1989
DGENRE=country
TTITLE0=Band Som Spiller Sjøl
TTITLE1=Når Du Går Så Lukk Att Døra
TTITLE2=Ho Kjører Trailer
TTITLE3=Ny Pappa
TTITLE4=Til Helvete Med Kvinnfolk
TTITLE5=Du Kan Høre Hjertet Mitt Slår
TTITLE6=Midnattsol
TTITLE7=Ka Sku E Gjort Uten De
TTITLE8=Oddemann
TTITLE9=Nå Reise E Fra Norge
EXTD=
EXTT0=
EXTT1=
EXTT2=
EXTT3=
EXTT4=
EXTT5=
EXTT6=
EXTT7=
EXTT8=
EXTT9=
PLAYORDER=
